<?xml version="1.0" encoding="UTF-8" standalone="no"?>
<!-- Created with Inkscape (http://www.inkscape.org/) -->

<svg
   xmlns:dc="http://purl.org/dc/elements/1.1/"
   xmlns:cc="http://creativecommons.org/ns#"
   xmlns:rdf="http://www.w3.org/1999/02/22-rdf-syntax-ns#"
   xmlns:svg="http://www.w3.org/2000/svg"
   xmlns="http://www.w3.org/2000/svg"
   xmlns:sodipodi="http://sodipodi.sourceforge.net/DTD/sodipodi-0.dtd"
   xmlns:inkscape="http://www.inkscape.org/namespaces/inkscape"
   width="210mm"
   height="297mm"
   id="svg2"
   version="1.1"
   inkscape:version="0.48.4 r9939"
   sodipodi:docname="Documento nuevo 1">
  <defs
     id="defs4" />
  <sodipodi:namedview
     id="base"
     pagecolor="#ffffff"
     bordercolor="#666666"
     borderopacity="1.0"
     inkscape:pageopacity="0.0"
     inkscape:pageshadow="2"
     inkscape:zoom="0.7"
     inkscape:cx="352.5201"
     inkscape:cy="628.05834"
     inkscape:document-units="px"
     inkscape:current-layer="layer1"
     showgrid="false"
     inkscape:window-width="1024"
     inkscape:window-height="578"
     inkscape:window-x="-8"
     inkscape:window-y="-8"
     inkscape:window-maximized="1" />
  <metadata
     id="metadata7">
    <rdf:RDF>
      <cc:Work
         rdf:about="">
        <dc:format>image/svg+xml</dc:format>
        <dc:type
           rdf:resource="http://purl.org/dc/dcmitype/StillImage" />
        <dc:title></dc:title>
      </cc:Work>
    </rdf:RDF>
  </metadata>
  <g
     inkscape:label="Capa 1"
     inkscape:groupmode="layer"
     id="layer1">
    <path
       style="fill:none;stroke:#000000;stroke-width:3.23972034px;stroke-linecap:butt;stroke-linejoin:miter;stroke-opacity:1"
       d="m 88.629267,227.19845 c 0.45628,48.68328 -1.387689,97.49311 0,146.12623 0.566074,19.83874 3.238251,39.56783 4.690733,59.36376 0.11141,1.51827 -0.306648,3.07386 0,4.56647 1.264323,6.15408 10.94505,16.74361 4.690735,18.26576 -6.254312,1.52215 -11.137531,-18.26576 -4.690735,-18.26576 20.51829,8.87761 29.16535,19.28177 46.90734,18.26576 25.02281,-1.43293 50.02894,-3.13351 75.05173,-4.56644 20.35139,-1.16542 40.61402,-3.66528 60.97956,-4.56644 50.00728,-2.21285 100.06754,-3.09039 150.10349,-4.56644 57.42302,-1.69399 116.22916,-1.20691 173.55715,4.56644 21.99495,2.21505 47.67672,21.64485 65.67028,9.13288 15.26801,-10.61677 0,-36.53155 0,-54.79735 0,-27.37731 1.64957,-54.89636 0,-82.19598 -1.87105,-30.96492 -4.69073,-57.46976 -4.69073,-86.76245 0,-3.04429 0,-6.08859 0,-9.13288 0,-1.52215 -1.56358,-4.56645 0,-4.56645 1.56358,0 1.56358,4.56645 0,4.56645 -2.21125,0 -2.71297,-3.60375 -4.69073,-4.56645 -2.00334,-0.97512 -21.59939,0 -23.45368,0 -25.01725,0 -50.03451,0 -75.05174,0 -101.6326,0 -203.26516,0 -304.89772,0 -29.70799,0 -59.41596,0 -89.12394,0 -12.50862,0 -25.01725,0 -37.52587,0 -3.15887,0 -16.62041,-0.83431 -18.76294,0 -6.4924,2.52816 -12.508621,6.08859 -18.762933,9.13289 z"
       id="path2985"
       inkscape:connector-curvature="0" />
  </g>
</svg>
