<?xml version="1.0" encoding="UTF-8" standalone="no"?>
<!-- Created with Inkscape (http://www.inkscape.org/) -->

<svg
   xmlns:dc="http://purl.org/dc/elements/1.1/"
   xmlns:cc="http://creativecommons.org/ns#"
   xmlns:rdf="http://www.w3.org/1999/02/22-rdf-syntax-ns#"
   xmlns:svg="http://www.w3.org/2000/svg"
   xmlns="http://www.w3.org/2000/svg"
   xmlns:sodipodi="http://sodipodi.sourceforge.net/DTD/sodipodi-0.dtd"
   xmlns:inkscape="http://www.inkscape.org/namespaces/inkscape"
   width="210mm"
   height="297mm"
   id="svg3006"
   version="1.1"
   inkscape:version="0.48.4 r9939"
   sodipodi:docname="Documento nuevo 3">
  <defs
     id="defs3008" />
  <sodipodi:namedview
     id="base"
     pagecolor="#ffffff"
     bordercolor="#666666"
     borderopacity="1.0"
     inkscape:pageopacity="0.0"
     inkscape:pageshadow="2"
     inkscape:zoom="0.35"
     inkscape:cx="350"
     inkscape:cy="520"
     inkscape:document-units="px"
     inkscape:current-layer="layer1"
     showgrid="false"
     inkscape:window-width="1024"
     inkscape:window-height="578"
     inkscape:window-x="-8"
     inkscape:window-y="-8"
     inkscape:window-maximized="1" />
  <metadata
     id="metadata3011">
    <rdf:RDF>
      <cc:Work
         rdf:about="">
        <dc:format>image/svg+xml</dc:format>
        <dc:type
           rdf:resource="http://purl.org/dc/dcmitype/StillImage" />
        <dc:title></dc:title>
      </cc:Work>
    </rdf:RDF>
  </metadata>
  <g
     inkscape:label="Capa 1"
     inkscape:groupmode="layer"
     id="layer1">
    <path
       style="fill:none;stroke:#000000;stroke-width:3.39912486px;stroke-linecap:butt;stroke-linejoin:miter;stroke-opacity:1"
       d="m 73.668419,241.58606 c 131.892021,0 263.784081,0 395.676161,0 25.04278,0 50.08558,0 75.12837,0 0.90939,0 33.01126,-0.6419 35.05992,0 2.23988,0.70182 2.89675,3.71537 5.00856,4.70787 1.43346,0.67371 22.36713,0 25.0428,0 20.03422,0 40.06846,0 60.10268,0 1.21472,0 14.86459,0.15128 15.02569,0 1.18051,-1.10966 -1.66951,-4.70787 0,-4.70787 1.66952,0 0,3.13858 0,4.70787 0,4.70789 0,9.41576 0,14.12363 0,21.97016 0,43.94028 0,65.91036 0,47.07882 0,94.15761 0,141.23643 0,2.21973 0.22685,23.32602 0,23.53938 -1.18054,1.10966 -3.51532,-0.70182 -5.00856,0 -2.11179,0.99251 -2.89678,3.71536 -5.00858,4.70787 -1.35531,0.63699 -27.89391,0 -30.05132,0 -16.69522,0 -33.39039,0 -50.08561,0 -6.67807,0 -13.44702,1.03196 -20.03421,0 -5.20767,-0.81584 -9.90383,-3.50429 -15.0257,-4.70787 -3.23932,-0.7612 -6.67807,0 -10.01711,0 -8.34759,0 -16.69521,0 -25.0428,0 -1.66952,0 -3.33903,0 -5.00855,0 -1.66953,0 -3.51528,0.70181 -5.00856,0 -2.11179,-0.99251 -2.76868,-4.00607 -5.00855,-4.70787 -2.76112,-0.86511 -25.80087,0 -30.05136,0 -1.66952,0 -3.51531,0.7018 -5.00855,0 -2.1118,-0.99252 -2.89679,-3.71538 -5.00856,-4.70789 -1.49327,-0.70181 -3.33907,0 -5.00859,0 -1.66951,0 -3.33903,0 -5.00855,0 -10.0171,0 -20.03421,0 -30.05136,0 -21.70376,0 -43.40753,0 -65.11126,0 -1.21472,0 -14.86464,0.15127 -15.0257,0 -1.18054,-1.10966 1.18053,-3.5982 0,-4.70787 -2.36103,-2.21934 -7.03059,1.40362 -10.01711,0 -2.1118,-0.99251 -2.89675,-3.71536 -5.00856,-4.70788 -1.81126,-0.85126 -21.55914,0 -25.04279,0 -18.36474,0 -36.72943,0 -55.09417,0 -26.71228,0 -53.4246,0 -80.13692,0 -10.01711,0 -20.03422,0 -30.05133,0 -2.25565,0 -13.50143,-0.71637 -15.02569,0 -2.1118,0.99252 -2.89676,3.71537 -5.00856,4.70788 -2.72678,1.28153 -7.29032,-1.28156 -10.01711,0 -2.11179,0.99251 -2.89678,3.71537 -5.00855,4.70787 -2.71708,1.27699 -18.663792,-1.28818 -20.034247,0 -1.180536,1.10967 1.180536,3.59821 0,4.70789 -0.449471,0.42251 -14.89724,0.24156 -15.025664,0 -0.391825,-0.73658 0,-22.22322 0,-23.53942 0,-7.84646 0,-15.69292 0,-23.53937 0,-4.70789 -0.982273,-9.5072 0,-14.12367 1.349982,-6.34469 3.876883,-12.44917 5.008555,-18.8315 0.987037,-5.56679 0,-13.00021 0,-18.83154 0,-14.12362 0,-28.24728 0,-42.3709 0,-17.26225 0,-34.52446 0,-51.78671 0,-6.27716 0,-12.55432 0,-18.83149 0,-3.13862 0.548936,-6.31991 0,-9.41582 -1.399529,-7.89296 -3.339032,-15.69291 -5.008555,-23.53938 z"
       id="path2987"
       inkscape:connector-curvature="0" />
  </g>
</svg>
