<?xml version="1.0" encoding="UTF-8" standalone="no"?>
<!-- Created with Inkscape (http://www.inkscape.org/) -->

<svg
   xmlns:dc="http://purl.org/dc/elements/1.1/"
   xmlns:cc="http://creativecommons.org/ns#"
   xmlns:rdf="http://www.w3.org/1999/02/22-rdf-syntax-ns#"
   xmlns:svg="http://www.w3.org/2000/svg"
   xmlns="http://www.w3.org/2000/svg"
   xmlns:sodipodi="http://sodipodi.sourceforge.net/DTD/sodipodi-0.dtd"
   xmlns:inkscape="http://www.inkscape.org/namespaces/inkscape"
   width="210mm"
   height="297mm"
   id="svg3037"
   version="1.1"
   inkscape:version="0.48.4 r9939"
   sodipodi:docname="Documento nuevo 5">
  <defs
     id="defs3039" />
  <sodipodi:namedview
     id="base"
     pagecolor="#ffffff"
     bordercolor="#666666"
     borderopacity="1.0"
     inkscape:pageopacity="0.0"
     inkscape:pageshadow="2"
     inkscape:zoom="0.35"
     inkscape:cx="350"
     inkscape:cy="520"
     inkscape:document-units="px"
     inkscape:current-layer="layer1"
     showgrid="false"
     inkscape:window-width="1024"
     inkscape:window-height="578"
     inkscape:window-x="-8"
     inkscape:window-y="-8"
     inkscape:window-maximized="1" />
  <metadata
     id="metadata3042">
    <rdf:RDF>
      <cc:Work
         rdf:about="">
        <dc:format>image/svg+xml</dc:format>
        <dc:type
           rdf:resource="http://purl.org/dc/dcmitype/StillImage" />
        <dc:title></dc:title>
      </cc:Work>
    </rdf:RDF>
  </metadata>
  <g
     inkscape:label="Capa 1"
     inkscape:groupmode="layer"
     id="layer1">
    <path
       style="fill:none;stroke:#000000;stroke-width:3.41858721px;stroke-linecap:butt;stroke-linejoin:miter;stroke-opacity:1"
       d="m 49.550938,365.36076 c 0,73.11101 0,146.22199 0,219.33296 0,10.66201 0,21.32405 0,31.98606 0,1.52315 0,3.04629 0,4.56943 0,1.52315 -1.650595,4.08779 0,4.56944 3.530568,1.0303 24.99816,0 31.317413,0 13.918835,0 27.837669,0 41.756539,0 2.72943,0 19.50582,0.60076 20.87826,0 2.20076,-0.96333 2.88532,-3.88826 5.21956,-4.56944 3.05387,-0.89116 26.83732,0 31.31741,0 3.47971,0 7.3268,1.36235 10.43913,0 1.55618,-0.68117 -1.23024,-3.49239 0,-4.56943 1.23027,-1.07703 3.47971,0 5.21956,0 5.2196,0 10.54052,0.89615 15.65873,0 3.81489,-0.66793 6.74834,-3.4924 10.43912,-4.56943 1.6506,-0.48168 3.56901,0.48165 5.21956,0 3.69082,-1.07704 6.66486,-3.74339 10.43917,-4.56943 6.63043,-1.45115 14.18497,1.1719 20.87825,0 6.95941,-1.52315 13.91887,-3.04629 20.87828,-4.56943 1.73986,-1.52315 2.88529,-3.88829 5.21957,-4.56944 3.30115,-0.96332 7.13797,0.9633 10.43912,0 2.33428,-0.68117 3.0188,-3.60614 5.21957,-4.56946 1.55618,-0.68118 3.4797,0 5.21956,0 1.73985,0 3.47974,0 5.2196,0 8.69927,0 17.39854,0 26.09781,0 1.73986,0 3.66342,0.68117 5.21957,0 2.20076,-0.96333 2.88532,-3.88826 5.21959,-4.56943 4.95171,-1.44497 10.43913,0 15.65869,0 15.65869,0 31.31742,0 46.97614,0 40.01669,0 80.03337,0 120.05009,0 10.43913,0 20.87825,0 31.31738,0 5.2196,0 10.70701,-1.44497 15.65872,0 2.33428,0.68117 3.0188,3.6061 5.21957,4.56943 1.16987,0.5121 19.63793,0 20.87828,0 19.1384,0 38.27684,0 57.41523,0 8.69927,0 17.39858,0 26.09785,0 3.47971,0 6.95942,0 10.43913,0 1.73985,0 5.21956,-1.52315 5.21956,0 0,1.52314 -5.21956,1.52314 -5.21956,0 0,-3.40584 3.98932,-5.90779 5.21956,-9.13887 0.98164,-2.57807 0,-10.7057 0,-13.70829 0,-13.70833 0,-27.41663 0,-41.12495 0,-9.13887 0,-18.27773 0,-27.4166 0,-3.04632 0.84397,-6.18354 0,-9.13889 -0.94357,-3.30416 -3.98929,-5.9078 -5.21956,-9.13887 -0.55018,-1.44497 0.55021,-3.12446 0,-4.56943 -1.23027,-3.23107 -3.98929,-5.90779 -5.21956,-9.13886 -1.1819,-3.10403 0,-26.09212 0,-31.98606 0,-3.04632 1.55618,-6.4142 0,-9.1389 -0.7781,-1.36235 -3.98929,1.07704 -5.21957,0 -0.23676,-0.20695 0,-20.6927 0,-22.84716 0,-1.67808 0.21009,-18.09387 0,-18.27776 -1.23027,-1.07703 -3.66341,0.68118 -5.21956,0 -2.20077,-0.96332 -3.01883,-3.6061 -5.21956,-4.56943 -1.55619,-0.68117 -3.98933,1.07704 -5.2196,0 -1.23024,-1.07703 1.39191,-3.65556 0,-4.56943 -6.2247,-4.08705 -14.2062,-5.63428 -20.87825,-9.1389 -2.1099,-1.10825 -3.0188,-3.6061 -5.21957,-4.56943 -3.28061,-1.43598 -17.59767,1.43602 -20.87828,0 -2.20077,-0.96332 -3.0188,-3.60611 -5.21957,-4.56943 -1.55618,-0.68118 -3.47971,0 -5.21956,0 -3.47971,0 -6.95942,0 -10.43913,0 -10.43916,0 -20.87828,0 -31.31741,0 -3.47971,0 -7.13801,0.96332 -10.43916,0 -2.33424,-0.68118 -3.0188,-3.60611 -5.21956,-4.56943 -1.55615,-0.68118 -3.47971,0 -5.21957,0 -3.4797,0 -6.95941,0 -10.43912,0 -6.97159,0 -13.90671,0 -20.87829,0 -26.09781,0 -52.19566,0 -78.29352,0 -5.1554,0 -24.04005,0.90072 -26.09785,0 -2.20073,-0.96333 -3.01879,-3.60611 -5.21956,-4.56943 -1.81965,-0.79652 -27.48585,0 -31.31745,0 -26.09781,0 -52.19566,0 -78.29351,0 -45.23625,0 -90.4725,0 -135.70875,0 -13.91883,0 -27.8377,0 -41.75654,0 -3.4797,0 -6.95941,0 -10.43916,0 -1.73985,0 -3.66338,-0.68118 -5.21956,0 -2.20077,0.96332 -3.0188,3.6061 -5.21956,4.56943 -1.55619,0.68117 -3.569014,-0.48168 -5.219574,0 -3.69078,1.07703 -6.74834,3.4924 -10.43912,4.56943 -1.650596,0.48168 -3.663418,-0.68118 -5.219565,0 -2.200768,0.96332 -2.792521,4.21531 -5.219563,4.56943 -8.580928,1.25203 -17.398579,0 -26.09785,0 z"
       id="path2989"
       inkscape:connector-curvature="0" />
  </g>
</svg>
