<?xml version="1.0" encoding="UTF-8" standalone="no"?>
<!-- Created with Inkscape (http://www.inkscape.org/) -->

<svg
   xmlns:dc="http://purl.org/dc/elements/1.1/"
   xmlns:cc="http://creativecommons.org/ns#"
   xmlns:rdf="http://www.w3.org/1999/02/22-rdf-syntax-ns#"
   xmlns:svg="http://www.w3.org/2000/svg"
   xmlns="http://www.w3.org/2000/svg"
   xmlns:sodipodi="http://sodipodi.sourceforge.net/DTD/sodipodi-0.dtd"
   xmlns:inkscape="http://www.inkscape.org/namespaces/inkscape"
   width="210mm"
   height="297mm"
   id="svg3065"
   version="1.1"
   inkscape:version="0.48.4 r9939"
   sodipodi:docname="btn4.svg">
  <defs
     id="defs3067" />
  <sodipodi:namedview
     id="base"
     pagecolor="#ffffff"
     bordercolor="#666666"
     borderopacity="1.0"
     inkscape:pageopacity="0.0"
     inkscape:pageshadow="2"
     inkscape:zoom="0.35"
     inkscape:cx="-122.85714"
     inkscape:cy="520"
     inkscape:document-units="px"
     inkscape:current-layer="layer1"
     showgrid="false"
     inkscape:window-width="1024"
     inkscape:window-height="578"
     inkscape:window-x="-8"
     inkscape:window-y="-8"
     inkscape:window-maximized="1" />
  <metadata
     id="metadata3070">
    <rdf:RDF>
      <cc:Work
         rdf:about="">
        <dc:format>image/svg+xml</dc:format>
        <dc:type
           rdf:resource="http://purl.org/dc/dcmitype/StillImage" />
        <dc:title></dc:title>
      </cc:Work>
    </rdf:RDF>
  </metadata>
  <g
     inkscape:label="Capa 1"
     inkscape:groupmode="layer"
     id="layer1">
    <path
       style="fill:none;stroke:#01dea2;stroke-width:3.56718682999999980px;stroke-linecap:butt;stroke-linejoin:miter;stroke-opacity:1;fill-opacity:1"
       d="m 44.806714,376.71841 c 107.014816,0 214.029586,0 321.044386,0 20.38379,0 40.76758,0 61.15137,0 5.09593,0 10.19187,0 15.28781,0 1.69864,0 3.57664,-0.75968 5.09598,0 2.1486,1.07433 2.81694,4.33635 5.09593,5.09601 3.22296,1.07434 6.79458,0 10.19188,0 1.69865,0 3.5766,-0.75966 5.09593,0 2.14864,1.07434 2.81699,4.33635 5.09594,5.09602 3.22296,1.07433 6.79458,0 10.19191,0 1.69865,0 3.57661,-0.75967 5.09595,0 2.14863,1.07433 2.94729,4.02168 5.09593,5.09601 1.33993,0.67 17.71901,0 20.38374,0 30.57567,0 61.15133,0 91.727,0 13.58917,0 27.17838,0 40.76754,0 2.29501,0 13.73695,-0.77544 15.28786,0 2.1486,1.07433 2.9473,4.02168 5.09592,5.09601 1.51931,0.75968 3.89482,-1.20115 5.09595,0 1.20113,1.20116 -1.20113,3.8949 0,5.09602 1.20113,1.20115 3.57662,-0.75967 5.09593,0 2.14866,1.07433 2.9473,4.02171 5.09595,5.09604 1.51932,0.75965 3.89484,-1.20115 5.09593,0 1.04183,1.04181 -1.01025,13.26751 0,15.28806 1.07433,2.14866 4.02166,2.94733 5.09595,5.09601 0.77546,1.55087 0,12.99304 0,15.28807 0,10.19203 0,20.38406 0,30.57609 0,27.17878 0,54.35756 0,81.53633 0,36.92273 0,52.31275 0,81.5363 0,2.40277 0.23115,25.24913 0,25.48011 -1.20111,1.20111 -3.3973,0 -5.09595,0 -1.69865,0 -3.39728,0 -5.09593,0 -20.38375,0 -40.76754,0 -61.15133,0 -15.28782,0 -30.57562,0 -45.86349,0 -3.39729,0 -6.79458,0 -10.19187,0 -3.39729,0 -6.89603,0.82395 -10.19187,0 -3.68491,-0.92123 -6.5885,-3.89491 -10.19192,-5.09602 -1.61146,-0.53718 -3.43029,0.33317 -5.09593,0 -6.86768,-1.37359 -13.43414,-4.22732 -20.38375,-5.09604 -6.74216,-0.84276 -13.58921,0 -20.38379,0 -3.39729,0 -6.96891,1.07433 -10.19187,0 -3.60342,-1.20112 -6.58852,-3.89486 -10.19192,-5.09603 -4.58634,-1.5288 -10.70147,1.5288 -15.28781,0 -3.60337,-1.20115 -6.46738,-4.3511 -10.19188,-5.09601 -4.99699,-0.99939 -10.19191,0 -15.28785,0 -10.19187,0 -20.38374,0 -30.57566,0 -2.29497,0 -13.73699,0.77545 -15.28786,0 -2.14863,-1.07434 -2.94729,-4.02168 -5.09593,-5.09601 -1.51933,-0.75967 -3.3973,0 -5.09594,0 -1.69865,0 -3.3973,0 -5.09594,0 -10.19191,0 -20.38378,0 -30.57566,0 -2.295,0 -13.73696,0.77543 -15.28786,0 -2.14863,-1.07434 -2.81693,-4.33634 -5.09593,-5.09602 -3.03034,-1.01013 -24.55629,0 -30.57566,0 -1.69865,0 -3.8948,1.20116 -5.09594,0 -1.20113,-1.20115 1.20114,-3.8949 0,-5.09601 -1.20113,-1.20116 -3.3973,0 -5.09594,0 -3.54443,0 -23.63687,0.92145 -25.47972,0 -2.14864,-1.07434 -2.81695,-4.33638 -5.09594,-5.09601 -3.22298,-1.07434 -6.79459,0 -10.19187,0 -1.69865,0 -3.57667,0.75963 -5.09595,0 -2.14864,-1.07434 -2.94733,-4.02172 -5.09593,-5.09605 -1.51934,-0.75967 -3.39734,0 -5.09598,0 -1.69865,0 -3.3973,0 -5.09594,0 -10.19186,0 -20.38374,0 -30.57566,0 -33.97292,0 -67.94589,0 -101.918838,0 -10.191878,0 -20.383787,0 -30.575663,0 -1.698646,0 -5.095938,1.69867 -5.095938,0 0,-1.69868 5.095938,1.69867 5.095938,0 0,-2.40227 -4.021617,-2.94735 -5.095938,-5.09602 -1.004513,-2.00906 0,-20.4467 0,-25.48007 0,-23.78143 0,-47.56287 0,-71.34427 0,-25.4801 0,-50.96021 0,-76.44031 0,-8.49337 0,-16.98672 0,-25.48008 0,-3.39734 1.074321,-6.96905 0,-10.19206 -2.892682,-8.67822 -6.794583,-16.98672 -10.191877,-25.48007 z"
       id="path2991"
       inkscape:connector-curvature="0" />
  </g>
</svg>
